<svg width="44" height="32" viewBox="0 0 44 32" fill="none" xmlns="http://www.w3.org/2000/svg">
<g filter="url(#filter0_dd_632_17)">
<rect x="3" y="2" width="38" height="26" rx="4" fill="url(#paint0_linear_632_17)" fill-opacity="0.16" shape-rendering="crispEdges"/>
<rect x="3.5" y="2.5" width="37" height="25" rx="3.5" stroke="white" stroke-opacity="0.08" shape-rendering="crispEdges"/>
<path d="M14.3127 20.1918C13.9548 20.1918 13.6281 20.1051 13.3326 19.9318C13.0371 19.7557 12.8013 19.5199 12.6252 19.2244C12.4491 18.9261 12.361 18.5994 12.361 18.2443C12.361 17.8835 12.4491 17.5554 12.6252 17.2599C12.8013 16.9645 13.0371 16.7287 13.3326 16.5526C13.6281 16.3764 13.9548 16.2884 14.3127 16.2884H15.1991V14.9759H14.3127C13.9548 14.9759 13.6281 14.8892 13.3326 14.7159C13.0371 14.5398 12.8013 14.3054 12.6252 14.0128C12.4491 13.7173 12.361 13.3892 12.361 13.0284C12.361 12.6705 12.4491 12.3437 12.6252 12.0483C12.8013 11.7528 13.0371 11.5185 13.3326 11.3452C13.6281 11.169 13.9548 11.081 14.3127 11.081C14.6707 11.081 14.9974 11.169 15.2928 11.3452C15.5883 11.5185 15.8241 11.7528 16.0002 12.0483C16.1792 12.3437 16.2687 12.6705 16.2687 13.0284V13.9105H17.5769V13.0284C17.5769 12.6705 17.6636 12.3437 17.8369 12.0483C18.013 11.7528 18.2488 11.5185 18.5442 11.3452C18.8397 11.169 19.1678 11.081 19.5286 11.081C19.8866 11.081 20.2133 11.169 20.5087 11.3452C20.8042 11.5185 21.0386 11.7528 21.2119 12.0483C21.388 12.3437 21.4761 12.6705 21.4761 13.0284C21.4761 13.3892 21.388 13.7173 21.2119 14.0128C21.0357 14.3054 20.7999 14.5398 20.5045 14.7159C20.2119 14.8892 19.8866 14.9759 19.5286 14.9759H18.6465V16.2884H19.5286C19.8866 16.2884 20.2119 16.3764 20.5045 16.5526C20.7999 16.7287 21.0357 16.9645 21.2119 17.2599C21.388 17.5554 21.4761 17.8835 21.4761 18.2443C21.4761 18.5994 21.388 18.9261 21.2119 19.2244C21.0357 19.5199 20.7999 19.7557 20.5045 19.9318C20.2119 20.1051 19.8866 20.1918 19.5286 20.1918C19.1678 20.1918 18.8397 20.1051 18.5442 19.9318C18.2488 19.7557 18.013 19.5199 17.8369 19.2244C17.6636 18.9261 17.5769 18.5994 17.5769 18.2443V17.3537H16.2687V18.2443C16.2687 18.5994 16.1792 18.9261 16.0002 19.2244C15.8241 19.5199 15.5883 19.7557 15.2928 19.9318C14.9974 20.1051 14.6707 20.1918 14.3127 20.1918ZM14.3127 19.1264C14.4746 19.1264 14.6224 19.0866 14.7559 19.0071C14.8923 18.9276 15.0002 18.821 15.0798 18.6875C15.1593 18.554 15.1991 18.4062 15.1991 18.2443V17.3537H14.3127C14.1508 17.3537 14.0031 17.3949 13.8695 17.4773C13.736 17.5568 13.6295 17.6634 13.5499 17.7969C13.4704 17.9304 13.4306 18.0795 13.4306 18.2443C13.4306 18.4062 13.469 18.554 13.5457 18.6875C13.6252 18.821 13.7317 18.9276 13.8653 19.0071C14.0016 19.0866 14.1508 19.1264 14.3127 19.1264ZM14.3127 13.9105H15.1991V13.0284C15.1991 12.8636 15.1593 12.7159 15.0798 12.5852C15.0002 12.4517 14.8923 12.3452 14.7559 12.2656C14.6224 12.1861 14.4746 12.1463 14.3127 12.1463C14.1508 12.1463 14.0031 12.1861 13.8695 12.2656C13.736 12.3452 13.6295 12.4517 13.5499 12.5852C13.4704 12.7159 13.4306 12.8636 13.4306 13.0284C13.4306 13.1903 13.469 13.3395 13.5457 13.4759C13.6252 13.6094 13.7317 13.7159 13.8653 13.7955C14.0016 13.8722 14.1508 13.9105 14.3127 13.9105ZM18.6465 13.9105H19.5286C19.6906 13.9105 19.8383 13.8722 19.9718 13.7955C20.1053 13.7159 20.2104 13.6094 20.2871 13.4759C20.3667 13.3423 20.4065 13.1932 20.4065 13.0284C20.4065 12.8636 20.3667 12.7159 20.2871 12.5852C20.2104 12.4517 20.1053 12.3452 19.9718 12.2656C19.8383 12.1861 19.6906 12.1463 19.5286 12.1463C19.3638 12.1463 19.2147 12.1861 19.0812 12.2656C18.9477 12.3452 18.8411 12.4517 18.7616 12.5852C18.6849 12.7159 18.6465 12.8636 18.6465 13.0284V13.9105ZM19.5286 19.1264C19.6906 19.1264 19.8383 19.0866 19.9718 19.0071C20.1053 18.9276 20.2104 18.821 20.2871 18.6875C20.3667 18.554 20.4065 18.4062 20.4065 18.2443C20.4065 18.0795 20.3667 17.9304 20.2871 17.7969C20.2104 17.6634 20.1053 17.5568 19.9718 17.4773C19.8383 17.3949 19.6906 17.3537 19.5286 17.3537H18.6465V18.2443C18.6465 18.4062 18.6849 18.554 18.7616 18.6875C18.8411 18.821 18.9477 18.9276 19.0812 19.0071C19.2147 19.0866 19.3638 19.1264 19.5286 19.1264ZM16.2687 16.2884H17.5769V14.9759H16.2687V16.2884ZM29.2294 20.144C28.6694 20.144 28.1494 20.04 27.6694 19.832C27.1894 19.616 26.7814 19.324 26.4454 18.956C26.1094 18.588 25.8614 18.164 25.7014 17.684L26.9014 17.18C27.1174 17.732 27.4334 18.156 27.8494 18.452C28.2654 18.748 28.7454 18.896 29.2894 18.896C29.6094 18.896 29.8894 18.848 30.1294 18.752C30.3694 18.648 30.5534 18.504 30.6814 18.32C30.8174 18.136 30.8854 17.924 30.8854 17.684C30.8854 17.356 30.7934 17.096 30.6094 16.904C30.4254 16.712 30.1534 16.56 29.7934 16.448L28.1134 15.92C27.4414 15.712 26.9294 15.396 26.5774 14.972C26.2254 14.54 26.0494 14.036 26.0494 13.46C26.0494 12.956 26.1734 12.516 26.4214 12.14C26.6694 11.756 27.0094 11.456 27.4414 11.24C27.8814 11.024 28.3814 10.916 28.9414 10.916C29.4774 10.916 29.9654 11.012 30.4054 11.204C30.8454 11.388 31.2214 11.644 31.5334 11.972C31.8534 12.3 32.0854 12.68 32.2294 13.112L31.0534 13.628C30.8774 13.156 30.6014 12.792 30.2254 12.536C29.8574 12.28 29.4294 12.152 28.9414 12.152C28.6454 12.152 28.3854 12.204 28.1614 12.308C27.9374 12.404 27.7614 12.548 27.6334 12.74C27.5134 12.924 27.4534 13.14 27.4534 13.388C27.4534 13.676 27.5454 13.932 27.7294 14.156C27.9134 14.38 28.1934 14.548 28.5694 14.66L30.1294 15.152C30.8414 15.368 31.3774 15.68 31.7374 16.088C32.0974 16.488 32.2774 16.988 32.2774 17.588C32.2774 18.084 32.1454 18.524 31.8814 18.908C31.6254 19.292 31.2694 19.596 30.8134 19.82C30.3574 20.036 29.8294 20.144 29.2294 20.144Z" fill="#9B9C9E"/>
</g>
<defs>
<filter id="filter0_dd_632_17" x="0" y="0" width="44" height="32" filterUnits="userSpaceOnUse" color-interpolation-filters="sRGB">
<feFlood flood-opacity="0" result="BackgroundImageFix"/>
<feColorMatrix in="SourceAlpha" type="matrix" values="0 0 0 0 0 0 0 0 0 0 0 0 0 0 0 0 0 0 127 0" result="hardAlpha"/>
<feOffset dy="1"/>
<feGaussianBlur stdDeviation="1.5"/>
<feComposite in2="hardAlpha" operator="out"/>
<feColorMatrix type="matrix" values="0 0 0 0 0 0 0 0 0 0 0 0 0 0 0 0 0 0 0.05 0"/>
<feBlend mode="normal" in2="BackgroundImageFix" result="effect1_dropShadow_632_17"/>
<feColorMatrix in="SourceAlpha" type="matrix" values="0 0 0 0 0 0 0 0 0 0 0 0 0 0 0 0 0 0 127 0" result="hardAlpha"/>
<feMorphology radius="1" operator="erode" in="SourceAlpha" result="effect2_dropShadow_632_17"/>
<feOffset dy="1"/>
<feGaussianBlur stdDeviation="1"/>
<feComposite in2="hardAlpha" operator="out"/>
<feColorMatrix type="matrix" values="0 0 0 0 0 0 0 0 0 0 0 0 0 0 0 0 0 0 0.05 0"/>
<feBlend mode="normal" in2="effect1_dropShadow_632_17" result="effect2_dropShadow_632_17"/>
<feBlend mode="normal" in="SourceGraphic" in2="effect2_dropShadow_632_17" result="shape"/>
</filter>
<linearGradient id="paint0_linear_632_17" x1="-7.79545" y1="-20.0755" x2="46.2211" y2="21.1607" gradientUnits="userSpaceOnUse">
<stop stop-color="#D7EDED"/>
<stop offset="1" stop-color="#CCEBEB" stop-opacity="0"/>
</linearGradient>
</defs>
</svg>
